:SAMPLES-PER-SECOND 30
:FULLY-SPECIFIED
:DEGREES
324
root  -2.56335 40.8778 1.76723 171.472 -77.4475 -173.981
RightUpLeg  4.39578 -0.535137 -1.54714
RightLeg  -1.0718 -8.57724 -0.555511
RightFoot  0.566854 -0.505123 4.87544
RightToes  -3.13006e-008 1.75238e-005 3.56266e-009
Spine  -7.96762 -8.6757 -11.8006
Spine1  19.1376 -10.8335 7.06756
HEad  -18.3319 -24.6626 -1.13569
LeftShoulder1  3.62461 -7.7137 -26.1977
LeftArm  -7.52812 -37.2517 -62.6806
LeftForeArm  39.5915 -78.04 -76.6165
LeftHand  0.143535 -0.354378 -2.88525
RightShoulder  2.91635 5.53294 26.252
RightArm  -15.0612 -28.193 43.4364
RightForeArm  81.5889 79.6023 87.9153
RightHand  0.356746 3.00238 4.72191
LeftUpLeg  6.31316 2.54533 1.98669
LeftLeg  -0.153507 23.5926 -0.931686
LeftFoot  -2.77263 0.165608 -2.13174
LeftToes  4.76866e-008 1.46233e-008 1.30548e-009
325
root  -2.55871 40.8726 1.79134 171.502 -76.6132 -174.067
RightUpLeg  4.2739 -0.529882 -1.53723
RightLeg  -0.972016 -7.76496 -0.54445
RightFoot  0.625184 -0.506655 4.87541
RightToes  -3.13006e-008 1.75238e-005 3.56266e-009
Spine  -7.99756 -8.67427 -11.8782
Spine1  19.2944 -10.923 7.30434
HEad  -18.3731 -25.0228 -1.17015
LeftShoulder1  3.61725 -7.71301 -26.1314
LeftArm  -8.05204 -36.6091 -61.9723
LeftForeArm  41.3368 -78.117 -78.2808
LeftHand  0.144514 -0.978296 -2.548
RightShoulder  2.86386 5.42258 26.0561
RightArm  -15.9065 -29.2954 43.6511
RightForeArm  82.6115 79.6977 86.6185
RightHand  0.454574 3.10082 5.97038
LeftUpLeg  6.36831 2.52288 1.93762
LeftLeg  0.0282852 24.4695 -0.775051
LeftFoot  -2.87958 0.166543 -2.13442
LeftToes  4.76866e-008 1.46233e-008 1.30548e-009
326
root  -2.58232 40.8704 1.80304 171.903 -75.6894 -174.537
RightUpLeg  4.21716 -0.468506 -1.54922
RightLeg  -0.909306 -6.90072 -0.634009
RightFoot  0.616443 -0.510849 4.918
RightToes  -3.13006e-008 1.75238e-005 3.56266e-009
Spine  -8.39101 -8.47729 -11.5999
Spine1  19.673 -10.6555 7.07002
HEad  -18.1004 -25.3332 -1.40365
LeftShoulder1  3.54232 -7.62005 -25.7101
LeftArm  -8.80448 -36.0921 -61.6033
LeftForeArm  41.1494 -78.1092 -78.1949
LeftHand  0.114469 -0.716984 -2.11653
RightShoulder  2.82681 5.27456 26.1803
RightArm  -16.3747 -30.4685 43.5154
RightForeArm  83.885 79.7336 87.2308
RightHand  0.490754 3.56097 6.10327
LeftUpLeg  6.64723 2.55299 1.86652
LeftLeg  -0.126387 25.3404 -0.858817
LeftFoot  -2.90618 0.166976 -2.12865
LeftToes  4.76866e-008 1.46233e-008 1.30548e-009
327
root  -2.57677 40.8667 1.8032 171.772 -75.1763 -174.443
RightUpLeg  4.20019 -0.360928 -1.43825
RightLeg  -0.93808 -6.53462 -0.663214
RightFoot  0.657612 -0.505374 4.81287
RightToes  -3.13006e-008 1.75238e-005 3.56266e-009
Spine  -8.3402 -8.35323 -11.615
Spine1  19.6145 -10.6386 7.36983
HEad  -17.5274 -25.3375 -1.48595
LeftShoulder1  3.41656 -7.27651 -25.5521
LeftArm  -9.42948 -35.7616 -61.196
LeftForeArm  39.9979 -78.0604 -77.2403
LeftHand  0.121711 -0.661291 -2.28433
RightShoulder  2.83363 5.32401 26.0728
RightArm  -16.3549 -31.4353 43.0816
RightForeArm  83.146 79.6435 88.6696
RightHand  0.375895 3.22711 4.82753
LeftUpLeg  6.69074 2.64329 1.95233
LeftLeg  -0.00190727 25.7277 -0.814523
LeftFoot  -2.96424 0.176301 -2.26054
LeftToes  4.76866e-008 1.46233e-008 1.30548e-009
328
root  -2.57165 40.8675 1.80024 171.908 -74.9153 -174.601
RightUpLeg  4.13316 -0.378018 -1.4597
RightLeg  -0.862873 -6.24522 -0.665318
RightFoot  0.697803 -0.508217 4.84066
RightToes  -3.13006e-008 1.75238e-005 3.56266e-009
Spine  -8.65309 -8.24998 -11.7132
Spine1  20.0493 -10.6185 7.6337
HEad  -17.4971 -25.5413 -1.37612
LeftShoulder1  3.32133 -7.0037 -25.4648
LeftArm  -9.97999 -35.7534 -60.5387
LeftForeArm  38.6971 -78.0141 -77.178
LeftHand  0.117738 -0.249734 -2.4168
RightShoulder  2.83804 5.38374 25.8982
RightArm  -16.7489 -32.0504 43.0459
RightForeArm  82.4553 79.6306 88.2087
RightHand  0.39703 3.54604 4.90387
LeftUpLeg  6.81966 2.60517 1.90616
LeftLeg  -0.204466 26.0532 -0.868228
LeftFoot  -2.89782 0.178434 -2.27996
LeftToes  4.76866e-008 1.46233e-008 1.30548e-009
329
root  -2.57116 40.8695 1.78907 171.887 -74.9324 -174.591
RightUpLeg  4.08854 -0.371534 -1.44687
RightLeg  -0.736294 -6.24049 -0.671906
RightFoot  0.671327 -0.509102 4.84297
RightToes  -3.13006e-008 1.75238e-005 3.56266e-009
Spine  -8.76461 -8.13034 -11.9941
Spine1  20.2038 -10.6657 8.1792
HEad  -17.4521 -26.1377 -1.52485
LeftShoulder1  3.27434 -6.82335 -25.5648
LeftArm  -10.618 -35.6558 -60.4044
LeftForeArm  38.7182 -78.0101 -76.7938
LeftHand  0.106929 -0.365821 -2.13355
RightShoulder  2.77881 5.27715 25.5994
RightArm  -17.01 -32.622 43.2235
RightForeArm  82.576 79.604 88.9777
RightHand  0.428926 3.70513 5.21291
LeftUpLeg  6.87168 2.54633 1.87464
LeftLeg  -0.291243 26.125 -0.826353
LeftFoot  -2.83182 0.179336 -2.27957
LeftToes  4.76866e-008 1.46233e-008 1.30548e-009
330
root  -2.56959 40.8703 1.76895 171.828 -75.1824 -174.514
RightUpLeg  4.14026 -0.382547 -1.43751
RightLeg  -0.80087 -6.47843 -0.637507
RightFoot  0.675041 -0.509122 4.838
RightToes  -3.13006e-008 1.75238e-005 3.56266e-009
Spine  -8.75268 -8.0295 -12.1668
Spine1  20.1088 -10.6691 8.55599
HEad  -17.2085 -26.1555 -1.29785
LeftShoulder1  3.31495 -6.8734 -25.8142
LeftArm  -11.2843 -35.6322 -59.4788
LeftForeArm  38.7885 -78.0205 -77.4486
LeftHand  0.106992 -0.0375415 -2.30411
RightShoulder  2.72418 5.15885 25.3931
RightArm  -16.9526 -33.1947 43.1294
RightForeArm  83.4286 79.5763 90.4869
RightHand  0.4731 3.74266 5.74547
LeftUpLeg  6.83745 2.51174 1.88892
LeftLeg  -0.308352 25.9483 -0.782305
LeftFoot  -2.78995 0.190457 -2.43747
LeftToes  4.76866e-008 1.46233e-008 1.30548e-009
331
root  -2.56437 40.8756 1.75437 172.073 -75.5064 -174.734
RightUpLeg  4.12142 -0.482348 -1.53173
RightLeg  -0.759145 -6.69056 -0.60297
RightFoot  0.641657 -0.507738 4.8186
RightToes  -3.13006e-008 1.75238e-005 3.56266e-009
Spine  -8.78165 -7.98422 -12.1752
Spine1  19.9925 -10.6168 8.62752
HEad  -16.6636 -25.8264 -1.54006
LeftShoulder1  3.2857 -6.79561 -25.7694
LeftArm  -11.8249 -35.649 -59.0907
LeftForeArm  38.7299 -78.0217 -77.7656
LeftHand  0.108655 -0.0345398 -2.33586
RightShoulder  2.70253 5.18224 25.043
RightArm  -16.9609 -33.644 43.5183
RightForeArm  83.2484 79.5795 90.2367
RightHand  0.412306 3.48022 5.14585
LeftUpLeg  6.86148 2.36431 1.77111
LeftLeg  -0.54382 25.7827 -0.80774
LeftFoot  -2.66479 0.196554 -2.51656
LeftToes  4.76866e-008 1.46233e-008 1.30548e-009
332
root  -2.56317 40.8788 1.73565 172.038 -76.056 -174.691
RightUpLeg  4.25838 -0.590808 -1.57871
RightLeg  -0.881759 -7.13868 -0.532515
RightFoot  0.608526 -0.503222 4.75916
RightToes  -3.13006e-008 1.75238e-005 3.56266e-009
Spine  -8.71453 -7.78988 -11.5134
Spine1  19.7495 -10.1616 7.81851
HEad  -16.365 -26.2199 -1.14391
LeftShoulder1  3.2213 -6.7272 -25.3345
LeftArm  -11.8726 -35.7571 -59.016
LeftForeArm  37.9152 -77.98 -76.6183
LeftHand  0.124051 -0.62344 -2.34992
RightShoulder  2.67392 5.0275 25.2831
RightArm  -17.1464 -34.4815 43.6824
RightForeArm  85.6292 79.5784 92.448
RightHand  0.437658 3.62522 5.37667
LeftUpLeg  6.78552 2.32092 1.77074
LeftLeg  -0.523647 25.2764 -0.795014
LeftFoot  -2.63696 0.191699 -2.42463
LeftToes  4.76866e-008 1.46233e-008 1.30548e-009
333
root  -2.53689 40.8847 1.69851 171.647 -77.0219 -174.136
RightUpLeg  4.36266 -0.688412 -1.54942
RightLeg  -1.21365 -8.05633 -0.321124
RightFoot  0.677184 -0.493671 4.63133
RightToes  -3.13006e-008 1.75238e-005 3.56266e-009
Spine  -8.66885 -7.8432 -11.6043
Spine1  19.7131 -10.2635 7.98897
HEad  -16.3708 -26.0004 -1.08498
LeftShoulder1  3.13758 -6.51683 -25.1544
LeftArm  -12.2368 -35.9321 -58.757
LeftForeArm  38.2774 -77.9958 -76.9058
LeftHand  0.102665 -0.534012 -1.97354
RightShoulder  2.64192 5.01339 24.9427
RightArm  -16.8842 -35.1968 43.8158
RightForeArm  87.5739 79.5125 95.1577
RightHand  0.467272 3.72012 5.69144
LeftUpLeg  6.31891 2.48089 2.03182
LeftLeg  -0.159365 24.1115 -0.803795
LeftFoot  -2.68355 0.193326 -2.43284
LeftToes  4.76866e-008 1.46233e-008 1.30548e-009
334
root  -2.534 40.8981 1.64534 171.154 -78.315 -173.462
RightUpLeg  4.62519 -1.00876 -1.66386
RightLeg  -1.73104 -9.12402 0.122274
RightFoot  0.72241 -0.494179 4.67077
RightToes  -3.13006e-008 1.75238e-005 3.56266e-009
Spine  -8.75424 -7.94517 -11.7424
Spine1  19.7078 -10.4209 8.24051
HEad  -16.5437 -25.6175 -1.05445
LeftShoulder1  3.22136 -6.69821 -25.4185
LeftArm  -13.2376 -35.7591 -57.4625
LeftForeArm  39.933 -78.0722 -78.8731
LeftHand  0.109949 -0.230744 -2.26418
RightShoulder  2.57748 4.89399 24.602
RightArm  -16.9961 -36.0334 44.4349
RightForeArm  88.8356 79.472 96.689
RightHand  0.427351 3.76811 5.15154
LeftUpLeg  5.93658 2.63306 2.29754
LeftLeg  -0.0431231 22.5683 -0.951742
LeftFoot  -2.6067 0.189246 -2.3516
LeftToes  4.76866e-008 1.46233e-008 1.30548e-009
